<?xml version="1.0" encoding="utf-8"?>
<!-- Generator: Adobe Illustrator 23.0.3, SVG Export Plug-In . SVG Version: 6.00 Build 0)  -->
<svg version="1.1" id="Layer_1" xmlns="http://www.w3.org/2000/svg" xmlns:xlink="http://www.w3.org/1999/xlink" x="0px" y="0px"
	 viewBox="0 0 2274.4 1402.07" style="enable-background:new 0 0 2274.4 1402.07;" xml:space="preserve">
<style type="text/css">
	.st0{opacity:0.07;fill:url(#SVGID_1_);stroke:#39BCFF;stroke-width:1.2;stroke-miterlimit:10;enable-background:new    ;}
	.st1{fill:none;}
	.st2{opacity:0.19;enable-background:new    ;}
	.st3{font-family:'ArialMT';}
	.st4{font-size:21.7557px;}
	.st5{opacity:0.19;}
	.st6{font-size:30.2162px;}
	.st7{stroke:#000000;stroke-miterlimit:10;}
	.st8{opacity:0.19;fill:none;stroke:#000000;stroke-width:2;stroke-miterlimit:10;enable-background:new    ;}
	.st9{font-size:29.0075px;}
	.st10{fill:none;stroke:#FFFFFF;stroke-width:3;stroke-miterlimit:10;}
	.st11{opacity:0.07;fill:url(#SVGID_2_);stroke:#39BCFF;stroke-width:1.2;stroke-miterlimit:10;enable-background:new    ;}
	.st12{font-size:36px;}
	.st13{font-size:50px;}
	.st14{font-size:48px;}
	.st15{opacity:0.07;fill:url(#SVGID_3_);stroke:#39BCFF;stroke-width:1.2;stroke-miterlimit:10;enable-background:new    ;}
	.st16{font-size:20.43px;}
	.st17{font-size:28.375px;}
	.st18{font-size:27.24px;}
	.st19{opacity:0.07;fill:url(#SVGID_4_);stroke:#39BCFF;stroke-width:1.2;stroke-miterlimit:10;enable-background:new    ;}
	.st20{opacity:0.07;fill:url(#SVGID_5_);stroke:#39BCFF;stroke-width:1.2;stroke-miterlimit:10;enable-background:new    ;}
	.st21{font-size:44.4872px;}
	.st22{font-size:61.7878px;}
	.st23{font-size:59.3163px;}
	.st24{opacity:0.07;fill:url(#SVGID_6_);stroke:#39BCFF;stroke-width:1.2;stroke-miterlimit:10;enable-background:new    ;}
	.st25{font-size:38.5671px;}
	.st26{font-size:53.5655px;}
	.st27{font-size:51.4228px;}
	.st28{opacity:0.07;fill:url(#SVGID_7_);stroke:#39BCFF;stroke-width:1.2;stroke-miterlimit:10;enable-background:new    ;}
</style>
<radialGradient id="SVGID_1_" cx="704.4668" cy="1162.5031" r="354.069" gradientTransform="matrix(0.6414 0 0 -0.6043 637.005 1250.0757)" gradientUnits="userSpaceOnUse">
	<stop  offset="0.2193" style="stop-color:#FFFFFF;stop-opacity:0"/>
	<stop  offset="1" style="stop-color:#000000"/>
</radialGradient>
<path class="st0" d="M1199.12,731.84H978.59c-7.38,0-13.37-5-13.37-11.16V374.47c0-6.17,5.98-11.16,13.37-11.16h220.52
	c7.38,0,13.37,5,13.37,11.16v346.22C1212.48,726.85,1206.5,731.84,1199.12,731.84z"/>
<rect x="978.18" y="459.5" class="st1" width="30.65" height="24.84"/>
<g class="st2">
	<path d="M978.15,474.95l6.35-15.57h2.35l6.77,15.57h-2.49l-1.93-4.71h-6.91l-1.82,4.71H978.15z M982.92,468.55h5.61l-1.73-4.31
		c-0.53-1.31-0.92-2.39-1.17-3.23c-0.21,1-0.51,1.99-0.89,2.97L982.92,468.55z"/>
	<path d="M1007.11,469.48l2.19,0.52c-0.46,1.69-1.28,2.99-2.48,3.87c-1.19,0.89-2.65,1.34-4.37,1.34c-1.78,0-3.23-0.34-4.35-1.03
		c-1.12-0.68-1.96-1.67-2.55-2.97c-0.58-1.29-0.87-2.69-0.87-4.18c0-1.62,0.33-3.03,0.99-4.24s1.59-2.13,2.81-2.75
		s2.55-0.94,4.01-0.94c1.65,0,3.05,0.4,4.17,1.19s1.91,1.91,2.35,3.35l-2.16,0.48c-0.38-1.14-0.94-1.96-1.67-2.48
		c-0.73-0.52-1.65-0.77-2.75-0.77c-1.27,0-2.33,0.28-3.19,0.86c-0.85,0.57-1.45,1.34-1.8,2.31s-0.52,1.96-0.52,2.99
		c0,1.32,0.21,2.48,0.62,3.47s1.05,1.73,1.91,2.22c0.87,0.49,1.8,0.73,2.81,0.73c1.23,0,2.26-0.33,3.11-1
		C1006.23,471.79,1006.81,470.79,1007.11,469.48z"/>
</g>
<rect x="1037.41" y="454.8" class="st1" width="34.92" height="17.46"/>
<text transform="matrix(1.0614 0 0 1 1037.4053 473.3383)" class="st2 st3 st4">+</text>
<g class="st5">
	<g>
		<path d="M1043.22,481.56c8.29-7.34,16.57-14.69,24.87-22.03c0.38-0.33-0.19-0.86-0.56-0.53c-8.29,7.34-16.57,14.69-24.87,22.03
			C1042.28,481.36,1042.85,481.89,1043.22,481.56L1043.22,481.56z"/>
	</g>
</g>
<rect x="1106.6" y="461.84" class="st1" width="27.08" height="20.14"/>
<text transform="matrix(1.0614 0 0 1 1106.5986 477.2933)" class="st2 st3 st4">%</text>
<rect x="989.86" y="519.25" class="st1" width="69.13" height="53.05"/>
<text transform="matrix(1.0614 0 0 1 989.8594 534.7035)" class="st2 st3 st4">7</text>
<rect x="1050.72" y="519.25" class="st1" width="44.19" height="29.55"/>
<text transform="matrix(1.0614 0 0 1 1050.7256 534.7045)" class="st2 st3 st4">8</text>
<rect x="1080.94" y="519.25" class="st1" width="78.4" height="34.92"/>
<text transform="matrix(1.0614 0 0 1 1108.958 534.7035)" class="st2 st3 st4">9</text>
<text transform="matrix(1.0614 0 0 1 989.8594 592.4506)" class="st2 st3 st4">4</text>
<rect x="1050.72" y="577" class="st1" width="76.26" height="63.79"/>
<text transform="matrix(1.0614 0 0 1 1050.7256 592.4506)" class="st2 st3 st4">5</text>
<rect x="1108.96" y="576.17" class="st1" width="39.2" height="27.53"/>
<text transform="matrix(1.0614 0 0 1 1108.958 591.6156)" class="st2 st3 st4">6</text>
<text transform="matrix(1.0614 0 0 1 988.584 648.1234)" class="st2 st3 st4">1</text>
<text transform="matrix(1.0614 0 0 1 1050.7256 650.3558)" class="st2 st3 st4">2</text>
<text transform="matrix(1.0614 0 0 1 1108.96 650.3558)" class="st2 st3 st4">3</text>
<rect x="1064.28" y="458.52" class="st1" width="59.15" height="23.5"/>
<text transform="matrix(1.0614 0 0 1 1064.2793 479.976)" class="st2 st3 st6">-</text>
<rect x="1054.87" y="354.84" class="st1" width="96.86" height="65.27"/>
<path class="st7" d="M937.48,363.3"/>
<path class="st7" d="M1397.77,302.12"/>
<line class="st8" x1="1166.38" y1="472.26" x2="1191.4" y2="472.26"/>
<line class="st8" x1="1171.7" y1="535.82" x2="1189.56" y2="519.31"/>
<line class="st8" x1="1188.63" y1="535.53" x2="1171.1" y2="518.7"/>
<line class="st8" x1="1167.24" y1="589.94" x2="1192.26" y2="589.94"/>
<line class="st8" x1="1166.38" y1="700.4" x2="1191.4" y2="700.4"/>
<line class="st8" x1="1166.38" y1="708.09" x2="1191.4" y2="708.09"/>
<rect x="987.09" y="694.59" class="st1" width="69.28" height="47.74"/>
<text transform="matrix(1.0614 0 0 1 987.0889 710.0336)" class="st2 st3 st4">0</text>
<rect x="1113.88" y="686.63" class="st1" width="80.82" height="42.91"/>
<text transform="matrix(1.0614 0 0 1 1113.8799 702.0814)" class="st2 st3 st9">.</text>
<line class="st8" x1="1166.71" y1="640.8" x2="1191.73" y2="640.8"/>
<line class="st8" x1="1178.89" y1="629.01" x2="1178.89" y2="652.58"/>
<line class="st10" x1="977.07" y1="439.31" x2="1200.64" y2="439.31"/>
<radialGradient id="SVGID_2_" cx="694.945" cy="1207.895" r="354.0922" gradientTransform="matrix(1 0 0 -1 0 1399.89)" gradientUnits="userSpaceOnUse">
	<stop  offset="0.2193" style="stop-color:#FFFFFF;stop-opacity:0"/>
	<stop  offset="1" style="stop-color:#000000"/>
</radialGradient>
<path class="st11" d="M866.85,496.91h-343.8c-11.51,0-20.84-8.28-20.84-18.47v-572.9c0-10.2,9.33-18.47,20.84-18.47h343.79
	c11.51,0,20.84,8.28,20.84,18.47v572.9C887.68,488.64,878.36,496.91,866.85,496.91z"/>
<rect x="522.41" y="46.25" class="st1" width="47.78" height="41.11"/>
<g class="st2">
	<path d="M522.36,71.81l9.9-25.77h3.67l10.55,25.77h-3.88l-3.01-7.8h-10.78l-2.83,7.8H522.36z M529.79,61.22h8.74l-2.69-7.14
		c-0.82-2.17-1.43-3.95-1.83-5.34c-0.33,1.65-0.79,3.29-1.39,4.92L529.79,61.22z"/>
	<path d="M567.51,62.77l3.41,0.86c-0.71,2.8-2,4.94-3.86,6.41s-4.13,2.21-6.81,2.21c-2.78,0-5.04-0.57-6.78-1.7
		s-3.06-2.77-3.97-4.91c-0.91-2.14-1.36-4.45-1.36-6.91c0-2.68,0.51-5.02,1.54-7.02c1.03-2,2.48-3.52,4.38-4.55s3.98-1.56,6.25-1.56
		c2.58,0,4.75,0.66,6.5,1.97s2.98,3.16,3.67,5.54l-3.36,0.79c-0.6-1.88-1.46-3.24-2.6-4.1c-1.14-0.86-2.57-1.28-4.29-1.28
		c-1.98,0-3.64,0.47-4.97,1.42s-2.26,2.22-2.8,3.82c-0.54,1.6-0.81,3.25-0.81,4.95c0,2.19,0.32,4.1,0.96,5.74s1.63,2.86,2.98,3.67
		c1.35,0.81,2.81,1.21,4.38,1.21c1.91,0,3.53-0.55,4.85-1.65S567.04,64.94,567.51,62.77z"/>
</g>
<rect x="614.74" y="38.47" class="st1" width="54.44" height="28.89"/>
<text transform="matrix(1 0 0 1 614.735 69.1537)" class="st2 st3 st12">+</text>
<g class="st5">
	<g>
		<path d="M623.8,82.75c12.92-12.15,25.84-24.31,38.77-36.46c0.59-0.55-0.3-1.43-0.88-0.88c-12.92,12.15-25.84,24.31-38.77,36.46
			C622.33,82.42,623.22,83.3,623.8,82.75L623.8,82.75z"/>
	</g>
</g>
<rect x="722.61" y="50.13" class="st1" width="42.22" height="33.33"/>
<text transform="matrix(1 0 0 1 722.6052 75.6979)" class="st2 st3 st12">%</text>
<rect x="540.61" y="145.13" class="st1" width="107.78" height="87.78"/>
<text transform="matrix(1 0 0 1 540.6112 170.6975)" class="st2 st3 st12">7</text>
<rect x="635.5" y="145.13" class="st1" width="68.89" height="48.89"/>
<text transform="matrix(1 0 0 1 635.5012 170.6982)" class="st2 st3 st12">8</text>
<rect x="682.61" y="145.13" class="st1" width="122.22" height="57.78"/>
<text transform="matrix(1 0 0 1 726.2832 170.6979)" class="st2 st3 st12">9</text>
<text transform="matrix(1 0 0 1 540.6107 266.2537)" class="st2 st3 st12">4</text>
<rect x="635.5" y="240.69" class="st1" width="118.89" height="105.56"/>
<text transform="matrix(1 0 0 1 635.501 266.2534)" class="st2 st3 st12">5</text>
<rect x="726.29" y="239.31" class="st1" width="61.11" height="45.56"/>
<text transform="matrix(1 0 0 1 726.2836 264.8716)" class="st2 st3 st12">6</text>
<text transform="matrix(1 0 0 1 538.6239 358.377)" class="st2 st3 st12">1</text>
<text transform="matrix(1 0 0 1 635.5011 362.0725)" class="st2 st3 st12">2</text>
<text transform="matrix(1 0 0 1 726.2872 362.0724)" class="st2 st3 st12">3</text>
<rect x="656.63" y="44.63" class="st1" width="92.22" height="38.89"/>
<text transform="matrix(1 0 0 1 656.6311 80.1371)" class="st2 st3 st13">-</text>
<rect x="641.96" y="-126.93" class="st1" width="151" height="108"/>
<path class="st7" d="M452.41,115.14"/>
<path class="st7" d="M764.32,174.05"/>
<line class="st8" x1="815.81" y1="67.36" x2="854.81" y2="67.36"/>
<line class="st8" x1="824.09" y1="172.55" x2="851.93" y2="145.23"/>
<line class="st8" x1="850.49" y1="172.06" x2="823.17" y2="144.22"/>
<line class="st8" x1="817.15" y1="262.09" x2="856.15" y2="262.09"/>
<line class="st8" x1="815.81" y1="444.88" x2="854.81" y2="444.88"/>
<line class="st8" x1="815.81" y1="457.6" x2="854.81" y2="457.6"/>
<rect x="536.29" y="435.26" class="st1" width="108" height="79"/>
<text transform="matrix(1 0 0 1 536.2924 460.8232)" class="st2 st3 st12">0</text>
<rect x="733.96" y="422.1" class="st1" width="126" height="71"/>
<text transform="matrix(1 0 0 1 733.9574 447.6632)" class="st2 st3 st14">.</text>
<line class="st8" x1="816.32" y1="346.25" x2="855.32" y2="346.25"/>
<line class="st8" x1="835.31" y1="326.75" x2="835.31" y2="365.75"/>
<line class="st10" x1="520.67" y1="12.85" x2="869.22" y2="12.85"/>
<radialGradient id="SVGID_3_" cx="-115.2972" cy="1074.9059" r="354.076" gradientTransform="matrix(0.6414 0 0 -0.5675 343.0916 991.959)" gradientUnits="userSpaceOnUse">
	<stop  offset="0.2193" style="stop-color:#FFFFFF;stop-opacity:0"/>
	<stop  offset="1" style="stop-color:#000000"/>
</radialGradient>
<path class="st15" d="M379.41,554.99H158.88c-7.38,0-13.37-4.7-13.37-10.48V219.39c0-5.79,5.98-10.48,13.37-10.48H379.4
	c7.38,0,13.37,4.7,13.37,10.48v325.12C392.77,550.3,386.79,554.99,379.41,554.99z"/>
<rect x="158.47" y="299.24" class="st1" width="30.65" height="23.33"/>
<g class="st2">
	<path d="M158.43,313.75l6.35-14.62h2.35l6.77,14.62h-2.49l-1.93-4.43h-6.91l-1.82,4.43H158.43z M163.2,307.74h5.61l-1.73-4.05
		c-0.53-1.23-0.92-2.24-1.17-3.03c-0.21,0.94-0.51,1.87-0.89,2.79L163.2,307.74z"/>
	<path d="M187.4,308.62l2.19,0.49c-0.46,1.59-1.28,2.8-2.48,3.64s-2.65,1.25-4.37,1.25c-1.78,0-3.23-0.32-4.35-0.96
		c-1.12-0.64-1.96-1.57-2.55-2.79c-0.58-1.21-0.87-2.53-0.87-3.92c0-1.52,0.33-2.85,0.99-3.98s1.59-2,2.81-2.58s2.55-0.89,4.01-0.89
		c1.65,0,3.05,0.37,4.17,1.12c1.12,0.74,1.91,1.79,2.35,3.14l-2.16,0.45c-0.38-1.07-0.94-1.84-1.67-2.33s-1.65-0.73-2.75-0.73
		c-1.27,0-2.33,0.27-3.19,0.81c-0.85,0.54-1.45,1.26-1.8,2.17s-0.52,1.84-0.52,2.81c0,1.24,0.21,2.33,0.62,3.26
		c0.41,0.93,1.05,1.62,1.91,2.08c0.87,0.46,1.8,0.69,2.81,0.69c1.23,0,2.26-0.31,3.11-0.94
		C186.52,310.78,187.09,309.85,187.4,308.62z"/>
</g>
<rect x="217.69" y="294.83" class="st1" width="34.92" height="16.4"/>
<text transform="matrix(1.1303 0 0 1 217.6904 312.2406)" class="st2 st3 st16">+</text>
<g class="st5">
	<g>
		<path d="M223.5,319.96c8.29-6.9,16.57-13.8,24.87-20.69c0.38-0.31-0.19-0.81-0.56-0.5c-8.29,6.9-16.57,13.8-24.87,20.69
			C222.56,319.77,223.13,320.27,223.5,319.96L223.5,319.96z"/>
	</g>
</g>
<rect x="286.88" y="301.45" class="st1" width="27.08" height="18.91"/>
<text transform="matrix(1.1303 0 0 1 286.8833 315.9545)" class="st2 st3 st16">%</text>
<rect x="170.14" y="355.36" class="st1" width="69.13" height="49.82"/>
<text transform="matrix(1.1303 0 0 1 170.144 369.8666)" class="st2 st3 st16">7</text>
<rect x="231.01" y="355.36" class="st1" width="44.19" height="27.75"/>
<text transform="matrix(1.1303 0 0 1 231.0107 369.8671)" class="st2 st3 st16">8</text>
<rect x="261.23" y="355.36" class="st1" width="78.4" height="32.79"/>
<text transform="matrix(1.1303 0 0 1 289.2422 369.8671)" class="st2 st3 st16">9</text>
<text transform="matrix(1.1303 0 0 1 170.1436 424.0951)" class="st2 st3 st16">4</text>
<rect x="231.01" y="409.59" class="st1" width="76.26" height="59.91"/>
<text transform="matrix(1.1303 0 0 1 231.0107 424.0951)" class="st2 st3 st16">5</text>
<rect x="289.24" y="408.81" class="st1" width="39.2" height="25.86"/>
<text transform="matrix(1.1303 0 0 1 289.2427 423.3109)" class="st2 st3 st16">6</text>
<text transform="matrix(1.1303 0 0 1 168.8691 476.3744)" class="st2 st3 st16">1</text>
<text transform="matrix(1.1303 0 0 1 231.0107 478.472)" class="st2 st3 st16">2</text>
<text transform="matrix(1.1303 0 0 1 289.2451 478.472)" class="st2 st3 st16">3</text>
<rect x="244.56" y="298.33" class="st1" width="59.15" height="22.07"/>
<text transform="matrix(1.1303 0 0 1 244.5645 318.473)" class="st2 st3 st17">-</text>
<rect x="235.15" y="200.96" class="st1" width="96.86" height="61.29"/>
<path class="st7" d="M117.77,208.91"/>
<path class="st7" d="M117.77,177.7"/>
<line class="st8" x1="346.67" y1="311.22" x2="371.68" y2="311.22"/>
<line class="st8" x1="351.98" y1="370.92" x2="369.84" y2="355.41"/>
<line class="st8" x1="368.91" y1="370.64" x2="351.39" y2="354.84"/>
<line class="st8" x1="347.53" y1="421.73" x2="372.54" y2="421.73"/>
<line class="st8" x1="346.67" y1="525.47" x2="371.68" y2="525.47"/>
<line class="st8" x1="346.67" y1="532.69" x2="371.68" y2="532.69"/>
<rect x="167.37" y="520.01" class="st1" width="69.28" height="44.83"/>
<text transform="matrix(1.1303 0 0 1 167.374 534.5131)" class="st2 st3 st16">0</text>
<rect x="294.16" y="512.54" class="st1" width="80.82" height="40.29"/>
<text transform="matrix(1.1303 0 0 1 294.165 527.0443)" class="st2 st3 st18">.</text>
<line class="st8" x1="346.99" y1="469.49" x2="372.01" y2="469.49"/>
<line class="st8" x1="359.17" y1="458.43" x2="359.17" y2="480.56"/>
<line class="st10" x1="157.35" y1="280.29" x2="380.93" y2="280.29"/>
<radialGradient id="SVGID_4_" cx="1020.1824" cy="1384.7189" r="354.0432" gradientTransform="matrix(0.6414 0 0 -0.6043 637.005 1250.0757)" gradientUnits="userSpaceOnUse">
	<stop  offset="0.2193" style="stop-color:#FFFFFF;stop-opacity:0"/>
	<stop  offset="1" style="stop-color:#000000"/>
</radialGradient>
<path class="st19" d="M1401.62,597.56h-220.53c-7.38,0-13.37-5-13.37-11.16V240.18c0-6.17,5.98-11.16,13.37-11.16h220.52
	c7.38,0,13.37,5,13.37,11.16V586.4C1414.98,592.57,1409,597.56,1401.62,597.56z"/>
<rect x="1180.68" y="325.22" class="st1" width="30.65" height="24.84"/>
<g class="st2">
	<path d="M1180.65,340.66l6.35-15.57h2.35l6.77,15.57h-2.49l-1.93-4.71h-6.91l-1.82,4.71H1180.65z M1185.41,334.26h5.61l-1.73-4.31
		c-0.53-1.31-0.92-2.39-1.17-3.23c-0.21,1-0.51,1.99-0.89,2.97L1185.41,334.26z"/>
	<path d="M1209.61,335.2l2.19,0.52c-0.46,1.69-1.28,2.99-2.48,3.87c-1.19,0.89-2.65,1.34-4.37,1.34c-1.78,0-3.23-0.34-4.35-1.03
		c-1.12-0.68-1.96-1.67-2.55-2.97c-0.58-1.29-0.87-2.69-0.87-4.18c0-1.62,0.33-3.03,0.99-4.24s1.59-2.13,2.81-2.75
		c1.22-0.62,2.55-0.94,4.01-0.94c1.65,0,3.05,0.4,4.17,1.19s1.91,1.91,2.35,3.35l-2.16,0.48c-0.38-1.14-0.94-1.96-1.67-2.48
		c-0.73-0.52-1.65-0.77-2.75-0.77c-1.27,0-2.33,0.28-3.19,0.86c-0.85,0.57-1.45,1.34-1.8,2.31c-0.35,0.97-0.52,1.96-0.52,2.99
		c0,1.32,0.21,2.48,0.62,3.47s1.05,1.73,1.91,2.22c0.87,0.49,1.8,0.73,2.81,0.73c1.23,0,2.26-0.33,3.11-1
		C1208.73,337.5,1209.3,336.51,1209.61,335.2z"/>
</g>
<rect x="1239.9" y="320.51" class="st1" width="34.92" height="17.46"/>
<text transform="matrix(1.0614 0 0 1 1239.9004 339.0555)" class="st2 st3 st4">+</text>
<g class="st5">
	<g>
		<path d="M1245.71,347.27c8.29-7.34,16.57-14.69,24.87-22.03c0.38-0.33-0.19-0.86-0.56-0.53c-8.29,7.34-16.57,14.69-24.87,22.03
			C1244.77,347.07,1245.34,347.61,1245.71,347.27L1245.71,347.27z"/>
	</g>
</g>
<rect x="1309.09" y="327.56" class="st1" width="27.08" height="20.14"/>
<text transform="matrix(1.0614 0 0 1 1309.0938 343.0106)" class="st2 st3 st4">%</text>
<rect x="1192.35" y="384.97" class="st1" width="69.13" height="53.05"/>
<text transform="matrix(1.0614 0 0 1 1192.3545 400.4208)" class="st2 st3 st4">7</text>
<rect x="1253.22" y="384.97" class="st1" width="44.19" height="29.55"/>
<text transform="matrix(1.0614 0 0 1 1253.2207 400.4218)" class="st2 st3 st4">8</text>
<rect x="1283.44" y="384.97" class="st1" width="78.4" height="34.92"/>
<text transform="matrix(1.0614 0 0 1 1311.4531 400.4213)" class="st2 st3 st4">9</text>
<text transform="matrix(1.0614 0 0 1 1192.3545 458.1674)" class="st2 st3 st4">4</text>
<rect x="1253.22" y="442.72" class="st1" width="76.26" height="63.79"/>
<text transform="matrix(1.0614 0 0 1 1253.2207 458.1674)" class="st2 st3 st4">5</text>
<rect x="1311.45" y="441.89" class="st1" width="39.2" height="27.53"/>
<text transform="matrix(1.0614 0 0 1 1311.4531 457.3324)" class="st2 st3 st4">6</text>
<text transform="matrix(1.0614 0 0 1 1191.0791 513.8402)" class="st2 st3 st4">1</text>
<text transform="matrix(1.0614 0 0 1 1253.2207 516.0736)" class="st2 st3 st4">2</text>
<text transform="matrix(1.0614 0 0 1 1311.4551 516.0736)" class="st2 st3 st4">3</text>
<rect x="1266.77" y="324.24" class="st1" width="59.15" height="23.5"/>
<text transform="matrix(1.0614 0 0 1 1266.7744 345.6932)" class="st2 st3 st6">-</text>
<rect x="1257.36" y="220.56" class="st1" width="96.86" height="65.27"/>
<line class="st8" x1="1368.88" y1="337.97" x2="1393.89" y2="337.97"/>
<line class="st8" x1="1374.19" y1="401.54" x2="1392.05" y2="385.03"/>
<line class="st8" x1="1391.12" y1="401.25" x2="1373.6" y2="384.42"/>
<line class="st8" x1="1369.74" y1="455.65" x2="1394.75" y2="455.65"/>
<line class="st8" x1="1368.88" y1="566.12" x2="1393.89" y2="566.12"/>
<line class="st8" x1="1368.88" y1="573.81" x2="1393.89" y2="573.81"/>
<rect x="1189.58" y="560.3" class="st1" width="69.28" height="47.74"/>
<text transform="matrix(1.0614 0 0 1 1189.584 575.7504)" class="st2 st3 st4">0</text>
<rect x="1316.37" y="552.35" class="st1" width="80.82" height="42.91"/>
<text transform="matrix(1.0614 0 0 1 1316.375 567.7982)" class="st2 st3 st9">.</text>
<line class="st8" x1="1369.2" y1="506.51" x2="1394.22" y2="506.51"/>
<line class="st8" x1="1381.39" y1="494.73" x2="1381.39" y2="518.3"/>
<line class="st10" x1="1179.56" y1="305.03" x2="1403.14" y2="305.03"/>
<radialGradient id="SVGID_5_" cx="1625.2393" cy="870.9562" r="354.0562" gradientTransform="matrix(1.3116 0 0 -1.2358 -377.7889 1840.7677)" gradientUnits="userSpaceOnUse">
	<stop  offset="0.2193" style="stop-color:#FFFFFF;stop-opacity:0"/>
	<stop  offset="1" style="stop-color:#000000"/>
</radialGradient>
<path class="st20" d="M1979.35,1141.25h-450.94c-15.1,0-27.33-10.23-27.33-22.83V410.46c0-12.61,12.24-22.83,27.33-22.83h450.93
	c15.1,0,27.33,10.23,27.33,22.83v707.96C2006.67,1131.03,1994.45,1141.25,1979.35,1141.25z"/>
<rect x="1527.57" y="584.34" class="st1" width="62.67" height="50.8"/>
<g class="st2">
	<path d="M1527.5,615.93l12.99-31.85h4.81l13.84,31.85h-5.09l-3.95-9.64h-14.14l-3.71,9.64H1527.5z M1537.25,602.84h11.46
		l-3.53-8.82c-1.08-2.68-1.88-4.88-2.4-6.6c-0.43,2.04-1.04,4.07-1.82,6.08L1537.25,602.84z"/>
	<path d="M1586.72,604.76l4.47,1.06c-0.93,3.46-2.62,6.1-5.06,7.92c-2.44,1.82-5.42,2.73-8.93,2.73c-3.65,0-6.61-0.7-8.89-2.1
		s-4.01-3.42-5.21-6.07s-1.78-5.5-1.78-8.54c0-3.31,0.67-6.2,2.02-8.67s3.25-4.35,5.74-5.62s5.22-1.93,8.2-1.93
		c3.38,0,6.23,0.82,8.53,2.43c2.3,1.62,3.91,3.9,4.81,6.85l-4.41,0.98c-0.79-2.32-1.91-4-3.41-5.07c-1.5-1.06-3.37-1.58-5.63-1.58
		c-2.6,0-4.77,0.58-6.52,1.75c-1.74,1.17-2.96,2.74-3.67,4.72c-0.71,1.98-1.06,4.02-1.06,6.12c0,2.71,0.42,5.07,1.26,7.09
		c0.84,2.03,2.14,3.53,3.91,4.54c1.77,1,3.69,1.5,5.74,1.5c2.51,0,4.63-0.68,6.36-2.04
		C1584.93,609.46,1586.11,607.44,1586.72,604.76z"/>
</g>
<rect x="1648.67" y="574.73" class="st1" width="71.41" height="35.7"/>
<text transform="matrix(1.0614 0 0 1 1648.6699 612.6402)" class="st2 st3 st21">+</text>
<g class="st5">
	<g>
		<path d="M1660.56,629.45c16.95-15.01,33.89-30.04,50.85-45.06c0.77-0.68-0.39-1.77-1.15-1.09
			c-16.95,15.01-33.89,30.04-50.85,45.06C1658.63,629.04,1659.8,630.13,1660.56,629.45L1660.56,629.45z"/>
	</g>
</g>
<rect x="1790.16" y="589.14" class="st1" width="55.38" height="41.19"/>
<text transform="matrix(1.0614 0 0 1 1790.1572 620.7281)" class="st2 st3 st21">%</text>
<rect x="1551.44" y="706.53" class="st1" width="141.37" height="108.47"/>
<text transform="matrix(1.0614 0 0 1 1551.4473 738.1246)" class="st2 st3 st21">7</text>
<rect x="1675.9" y="706.53" class="st1" width="90.36" height="60.42"/>
<text transform="matrix(1.0614 0 0 1 1675.9082 738.1265)" class="st2 st3 st21">8</text>
<rect x="1737.69" y="706.53" class="st1" width="160.31" height="71.4"/>
<text transform="matrix(1.0614 0 0 1 1794.9814 738.1246)" class="st2 st3 st21">9</text>
<text transform="matrix(1.0614 0 0 1 1551.4463 856.2086)" class="st2 st3 st21">4</text>
<rect x="1675.9" y="824.62" class="st1" width="155.94" height="130.45"/>
<text transform="matrix(1.0614 0 0 1 1675.9082 856.2086)" class="st2 st3 st21">5</text>
<rect x="1794.99" y="822.92" class="st1" width="80.15" height="56.3"/>
<text transform="matrix(1.0614 0 0 1 1794.9814 854.5015)" class="st2 st3 st21">6</text>
<text transform="matrix(1.0614 0 0 1 1548.8398 970.0523)" class="st2 st3 st21">1</text>
<text transform="matrix(1.0614 0 0 1 1675.9082 974.6168)" class="st2 st3 st21">2</text>
<text transform="matrix(1.0614 0 0 1 1794.9863 974.6168)" class="st2 st3 st21">3</text>
<rect x="1703.62" y="582.34" class="st1" width="120.96" height="48.06"/>
<text transform="matrix(1.0614 0 0 1 1703.623 626.2134)" class="st2 st3 st22">-</text>
<rect x="1684.38" y="370.33" class="st1" width="198.06" height="133.46"/>
<line class="st8" x1="1912.4" y1="610.43" x2="1963.56" y2="610.43"/>
<line class="st8" x1="1923.27" y1="740.41" x2="1959.79" y2="706.65"/>
<line class="st8" x1="1957.89" y1="739.81" x2="1922.06" y2="705.41"/>
<line class="st8" x1="1914.16" y1="851.07" x2="1965.32" y2="851.07"/>
<line class="st8" x1="1912.4" y1="1076.95" x2="1963.56" y2="1076.95"/>
<line class="st8" x1="1912.4" y1="1092.67" x2="1963.56" y2="1092.67"/>
<rect x="1545.77" y="1065.06" class="st1" width="141.66" height="97.62"/>
<text transform="matrix(1.0614 0 0 1 1545.7822 1096.65)" class="st2 st3 st21">0</text>
<rect x="1805.05" y="1048.8" class="st1" width="165.27" height="87.74"/>
<text transform="matrix(1.0614 0 0 1 1805.0469 1080.3883)" class="st2 st3 st23">.</text>
<line class="st8" x1="1913.07" y1="955.07" x2="1964.23" y2="955.07"/>
<line class="st8" x1="1937.98" y1="930.97" x2="1937.98" y2="979.17"/>
<line class="st10" x1="1525.29" y1="543.07" x2="1982.46" y2="543.07"/>
<radialGradient id="SVGID_6_" cx="-142.5167" cy="499.4951" r="354.1003" gradientTransform="matrix(1.112 0 0 -1.0713 447.7186 1508.5613)" gradientUnits="userSpaceOnUse">
	<stop  offset="0.2193" style="stop-color:#FFFFFF;stop-opacity:0"/>
	<stop  offset="1" style="stop-color:#000000"/>
</radialGradient>
<path class="st24" d="M480.4,1300.12H98.08c-12.8,0-23.17-8.87-23.17-19.79V666.58c0-10.93,10.38-19.79,23.17-19.79h382.31
	c12.8,0,23.17,8.87,23.17,19.79v613.75C503.57,1291.27,493.2,1300.12,480.4,1300.12z"/>
<rect x="97.37" y="817.33" class="st1" width="53.13" height="44.04"/>
<g class="st2">
	<path d="M97.32,844.71l11.01-27.61h4.08l11.73,27.61h-4.31l-3.35-8.36h-11.99l-3.15,8.36H97.32z M105.58,833.37h9.72l-2.99-7.65
		c-0.91-2.32-1.59-4.23-2.04-5.72c-0.37,1.77-0.88,3.52-1.55,5.27L105.58,833.37z"/>
	<path d="M147.52,835.03l3.79,0.92c-0.79,3-2.22,5.29-4.29,6.87c-2.07,1.57-4.59,2.37-7.57,2.37c-3.09,0-5.6-0.61-7.54-1.82
		c-1.93-1.21-3.4-2.97-4.41-5.26c-1.01-2.29-1.51-4.77-1.51-7.4c0-2.87,0.57-5.38,1.71-7.52c1.15-2.14,2.76-3.77,4.87-4.87
		s4.43-1.67,6.95-1.67c2.87,0,5.28,0.71,7.23,2.11c1.95,1.4,3.31,3.39,4.08,5.94l-3.74,0.85c-0.67-2.01-1.62-3.47-2.89-4.39
		c-1.27-0.92-2.86-1.37-4.77-1.37c-2.2,0-4.05,0.5-5.53,1.52s-2.51,2.38-3.11,4.09c-0.6,1.71-0.9,3.48-0.9,5.3
		c0,2.35,0.36,4.39,1.07,6.15c0.71,1.76,1.81,3.06,3.31,3.93s3.12,1.3,4.87,1.3c2.12,0,3.93-0.59,5.39-1.77
		C146,839.11,147,837.35,147.52,835.03z"/>
</g>
<rect x="200.05" y="808.99" class="st1" width="60.54" height="30.95"/>
<text transform="matrix(1.038 0 0 1 200.0485 841.8582)" class="st2 st3 st25">+</text>
<g class="st5">
	<g>
		<path d="M210.12,856.43c14.37-13.02,28.74-26.04,43.11-39.06c0.66-0.59-0.33-1.53-0.98-0.94c-14.37,13.02-28.74,26.04-43.11,39.06
			C208.49,856.08,209.48,857.02,210.12,856.43L210.12,856.43z"/>
	</g>
</g>
<rect x="320" y="821.48" class="st1" width="46.95" height="35.71"/>
<text transform="matrix(1.038 0 0 1 320.0046 848.869)" class="st2 st3 st25">%</text>
<rect x="117.61" y="923.26" class="st1" width="119.86" height="94.04"/>
<text transform="matrix(1.038 0 0 1 117.6208 950.6424)" class="st2 st3 st25">7</text>
<rect x="223.13" y="923.26" class="st1" width="76.61" height="52.38"/>
<text transform="matrix(1.038 0 0 1 223.1413 950.6443)" class="st2 st3 st25">8</text>
<rect x="275.52" y="923.26" class="st1" width="135.91" height="61.9"/>
<text transform="matrix(1.038 0 0 1 324.0954 950.6434)" class="st2 st3 st25">9</text>
<text transform="matrix(1.038 0 0 1 117.6198 1053.0135)" class="st2 st3 st25">4</text>
<rect x="223.13" y="1025.63" class="st1" width="132.21" height="113.09"/>
<text transform="matrix(1.038 0 0 1 223.1413 1053.0135)" class="st2 st3 st25">5</text>
<rect x="324.09" y="1024.15" class="st1" width="67.96" height="48.81"/>
<text transform="matrix(1.038 0 0 1 324.0954 1051.5331)" class="st2 st3 st25">6</text>
<text transform="matrix(1.038 0 0 1 115.4099 1151.7069)" class="st2 st3 st25">1</text>
<text transform="matrix(1.038 0 0 1 223.1413 1155.6649)" class="st2 st3 st25">2</text>
<text transform="matrix(1.038 0 0 1 324.0993 1155.6649)" class="st2 st3 st25">3</text>
<rect x="246.63" y="815.59" class="st1" width="102.55" height="41.66"/>
<text transform="matrix(1.038 0 0 1 246.6384 853.6248)" class="st2 st3 st26">-</text>
<rect x="230.32" y="631.8" class="st1" width="167.92" height="115.7"/>
<line class="st8" x1="423.64" y1="839.94" x2="467.01" y2="839.94"/>
<line class="st8" x1="432.86" y1="952.63" x2="463.82" y2="923.36"/>
<line class="st8" x1="462.21" y1="952.11" x2="431.83" y2="922.28"/>
<line class="st8" x1="425.13" y1="1048.56" x2="468.5" y2="1048.56"/>
<line class="st8" x1="423.64" y1="1244.38" x2="467.01" y2="1244.38"/>
<line class="st8" x1="423.64" y1="1258.01" x2="467.01" y2="1258.01"/>
<rect x="112.81" y="1234.08" class="st1" width="120.1" height="84.63"/>
<text transform="matrix(1.038 0 0 1 112.8181 1261.4569)" class="st2 st3 st25">0</text>
<rect x="332.62" y="1219.98" class="st1" width="140.12" height="76.06"/>
<text transform="matrix(1.038 0 0 1 332.6286 1247.3602)" class="st2 st3 st27">.</text>
<line class="st8" x1="424.21" y1="1138.72" x2="467.58" y2="1138.72"/>
<line class="st8" x1="445.33" y1="1117.83" x2="445.33" y2="1159.61"/>
<line class="st10" x1="95.44" y1="781.55" x2="483.04" y2="781.55"/>
<radialGradient id="SVGID_7_" cx="362.0439" cy="141.6158" r="354.1059" gradientTransform="matrix(0.6414 0 0 -0.6043 637.005 1250.0757)" gradientUnits="userSpaceOnUse">
	<stop  offset="0.2193" style="stop-color:#FFFFFF;stop-opacity:0"/>
	<stop  offset="1" style="stop-color:#000000"/>
</radialGradient>
<path class="st28" d="M979.49,1348.77H758.96c-7.38,0-13.37-5-13.37-11.16V991.39c0-6.17,5.98-11.16,13.37-11.16h220.52
	c7.38,0,13.37,5,13.37,11.16v346.22C992.85,1343.77,986.87,1348.77,979.49,1348.77z"/>
<rect x="758.55" y="1076.42" class="st1" width="30.65" height="24.84"/>
<g class="st2">
	<path d="M758.52,1091.87l6.35-15.57h2.35l6.77,15.57h-2.49l-1.93-4.71h-6.91l-1.82,4.71H758.52z M763.28,1085.47h5.61l-1.73-4.31
		c-0.53-1.31-0.92-2.39-1.17-3.23c-0.21,1-0.51,1.99-0.89,2.97L763.28,1085.47z"/>
	<path d="M787.48,1086.41l2.19,0.52c-0.46,1.69-1.28,2.99-2.48,3.87c-1.19,0.89-2.65,1.34-4.37,1.34c-1.78,0-3.23-0.34-4.35-1.03
		c-1.12-0.68-1.96-1.67-2.55-2.97c-0.58-1.29-0.87-2.69-0.87-4.18c0-1.62,0.33-3.03,0.99-4.24c0.66-1.21,1.59-2.13,2.81-2.75
		s2.55-0.94,4.01-0.94c1.65,0,3.05,0.4,4.17,1.19c1.12,0.79,1.91,1.91,2.35,3.35l-2.16,0.48c-0.38-1.14-0.94-1.96-1.67-2.48
		s-1.65-0.77-2.75-0.77c-1.27,0-2.33,0.28-3.19,0.86c-0.85,0.57-1.45,1.34-1.8,2.31s-0.52,1.96-0.52,2.99
		c0,1.32,0.21,2.48,0.62,3.47c0.41,0.99,1.05,1.73,1.91,2.22c0.87,0.49,1.8,0.73,2.81,0.73c1.23,0,2.26-0.33,3.11-1
		C786.6,1088.71,787.18,1087.72,787.48,1086.41z"/>
</g>
<rect x="817.77" y="1071.72" class="st1" width="34.92" height="17.46"/>
<text transform="matrix(1.0614 0 0 1 817.7729 1090.2607)" class="st2 st3 st4">+</text>
<g class="st5">
	<g>
		<path d="M823.59,1098.48c8.29-7.34,16.57-14.69,24.87-22.03c0.38-0.33-0.19-0.86-0.56-0.53c-8.29,7.34-16.57,14.69-24.87,22.03
			C822.64,1098.28,823.21,1098.81,823.59,1098.48L823.59,1098.48z"/>
	</g>
</g>
<rect x="886.97" y="1078.77" class="st1" width="27.08" height="20.14"/>
<text transform="matrix(1.0614 0 0 1 886.9663 1094.2158)" class="st2 st3 st4">%</text>
<rect x="770.22" y="1136.18" class="st1" width="69.13" height="53.05"/>
<text transform="matrix(1.0614 0 0 1 770.2271 1151.626)" class="st2 st3 st4">7</text>
<rect x="831.09" y="1136.18" class="st1" width="44.19" height="29.55"/>
<text transform="matrix(1.0614 0 0 1 831.0933 1151.627)" class="st2 st3 st4">8</text>
<rect x="861.31" y="1136.18" class="st1" width="78.4" height="34.92"/>
<text transform="matrix(1.0614 0 0 1 889.3257 1151.626)" class="st2 st3 st4">9</text>
<text transform="matrix(1.0614 0 0 1 770.2271 1209.373)" class="st2 st3 st4">4</text>
<rect x="831.09" y="1193.93" class="st1" width="76.26" height="63.79"/>
<text transform="matrix(1.0614 0 0 1 831.0933 1209.373)" class="st2 st3 st4">5</text>
<rect x="889.33" y="1193.1" class="st1" width="39.2" height="27.53"/>
<text transform="matrix(1.0614 0 0 1 889.3257 1208.5381)" class="st2 st3 st4">6</text>
<text transform="matrix(1.0614 0 0 1 768.9517 1265.0459)" class="st2 st3 st4">1</text>
<text transform="matrix(1.0614 0 0 1 831.0933 1267.2783)" class="st2 st3 st4">2</text>
<text transform="matrix(1.0614 0 0 1 889.3276 1267.2783)" class="st2 st3 st4">3</text>
<rect x="844.64" y="1075.45" class="st1" width="59.15" height="23.5"/>
<text transform="matrix(1.0614 0 0 1 844.647 1096.8984)" class="st2 st3 st6">-</text>
<rect x="835.23" y="971.77" class="st1" width="96.86" height="65.27"/>
<line class="st8" x1="946.75" y1="1089.18" x2="971.77" y2="1089.18"/>
<line class="st8" x1="952.07" y1="1152.75" x2="969.92" y2="1136.24"/>
<line class="st8" x1="968.99" y1="1152.45" x2="951.47" y2="1135.63"/>
<line class="st8" x1="947.61" y1="1206.86" x2="972.63" y2="1206.86"/>
<line class="st8" x1="946.75" y1="1317.33" x2="971.77" y2="1317.33"/>
<line class="st8" x1="946.75" y1="1325.01" x2="971.77" y2="1325.01"/>
<rect x="767.45" y="1311.51" class="st1" width="69.28" height="47.74"/>
<text transform="matrix(1.0614 0 0 1 767.4565 1326.9561)" class="st2 st3 st4">0</text>
<rect x="894.25" y="1303.56" class="st1" width="80.82" height="42.91"/>
<text transform="matrix(1.0614 0 0 1 894.2476 1319.0039)" class="st2 st3 st9">.</text>
<line class="st8" x1="947.08" y1="1257.72" x2="972.09" y2="1257.72"/>
<line class="st8" x1="959.26" y1="1245.94" x2="959.26" y2="1269.51"/>
<line class="st10" x1="757.43" y1="1056.24" x2="981.01" y2="1056.24"/>
</svg>
