<?xml version="1.0" encoding="utf-8"?>
<!-- Generator: Adobe Illustrator 23.0.3, SVG Export Plug-In . SVG Version: 6.00 Build 0)  -->
<svg version="1.1" id="Layer_1" xmlns="http://www.w3.org/2000/svg" xmlns:xlink="http://www.w3.org/1999/xlink" x="0px" y="0px"
	 viewBox="0 0 2274.4 1402.07" style="enable-background:new 0 0 2274.4 1402.07;" xml:space="preserve">
<style type="text/css">
	.st0{opacity:0.07;fill:url(#SVGID_1_);stroke:#39BCFF;stroke-width:1.2;stroke-miterlimit:10;enable-background:new    ;}
	.st1{opacity:0.19;fill:none;}
	.st2{opacity:0.19;enable-background:new    ;}
	.st3{font-family:'ArialMT';}
	.st4{font-size:21.7557px;}
	.st5{opacity:0.19;}
	.st6{font-size:30.2162px;}
	.st7{fill:none;}
	.st8{stroke:#000000;stroke-miterlimit:10;}
	.st9{opacity:0.19;fill:none;stroke:#000000;stroke-width:2;stroke-miterlimit:10;enable-background:new    ;}
	.st10{opacity:0.19;fill:none;stroke:#000000;stroke-width:2;stroke-miterlimit:10;}
	.st11{font-size:29.0075px;}
	.st12{fill:#FFFFFF;stroke:#FFFFFF;stroke-width:3;stroke-miterlimit:10;}
	.st13{opacity:0.07;fill:url(#SVGID_2_);stroke:#39BCFF;stroke-width:1.2;stroke-miterlimit:10;enable-background:new    ;}
	.st14{font-size:36px;}
	.st15{font-size:50px;}
	.st16{font-size:48px;}
	.st17{opacity:0.07;fill:url(#SVGID_3_);stroke:#39BCFF;stroke-width:1.2;stroke-miterlimit:10;enable-background:new    ;}
	.st18{font-size:20.43px;}
	.st19{font-size:28.375px;}
	.st20{font-size:27.24px;}
	.st21{opacity:0.07;fill:url(#SVGID_4_);stroke:#39BCFF;stroke-width:1.2;stroke-miterlimit:10;enable-background:new    ;}
	.st22{opacity:0.07;fill:url(#SVGID_5_);stroke:#39BCFF;stroke-width:1.2;stroke-miterlimit:10;enable-background:new    ;}
	.st23{font-size:44.4872px;}
	.st24{font-size:61.7878px;}
	.st25{font-size:59.3163px;}
	.st26{opacity:0.07;fill:url(#SVGID_6_);stroke:#39BCFF;stroke-width:1.2;stroke-miterlimit:10;enable-background:new    ;}
	.st27{font-size:38.5671px;}
	.st28{font-size:53.5655px;}
	.st29{font-size:51.4228px;}
	.st30{opacity:0.07;fill:url(#SVGID_7_);stroke:#39BCFF;stroke-width:1.2;stroke-miterlimit:10;enable-background:new    ;}
</style>
<radialGradient id="SVGID_1_" cx="1173.4674" cy="420.0587" r="354.0925" gradientTransform="matrix(0.6414 0 0 0.6043 336.1396 293.7218)" gradientUnits="userSpaceOnUse">
	<stop  offset="0.2193" style="stop-color:#FFFFFF;stop-opacity:0"/>
	<stop  offset="1" style="stop-color:#000000"/>
</radialGradient>
<path class="st0" d="M1199.12,731.84H978.59c-7.38,0-13.37-5-13.37-11.16V374.47c0-6.17,5.98-11.16,13.37-11.16h220.52
	c7.38,0,13.37,5,13.37,11.16v346.22C1212.48,726.85,1206.5,731.84,1199.12,731.84z"/>
<rect x="978.18" y="459.5" class="st1" width="30.65" height="24.84"/>
<g class="st2">
	<path d="M978.15,474.95l6.35-15.57h2.35l6.77,15.57h-2.49l-1.93-4.71h-6.91l-1.82,4.71H978.15z M982.92,468.55h5.61l-1.73-4.31
		c-0.53-1.31-0.92-2.39-1.17-3.23c-0.21,1-0.51,1.99-0.89,2.97L982.92,468.55z"/>
	<path d="M1007.11,469.48l2.19,0.52c-0.46,1.69-1.28,2.99-2.48,3.87c-1.19,0.89-2.65,1.34-4.37,1.34c-1.78,0-3.23-0.34-4.35-1.03
		c-1.12-0.68-1.96-1.67-2.55-2.97c-0.58-1.29-0.87-2.69-0.87-4.18c0-1.62,0.33-3.03,0.99-4.24c0.66-1.21,1.59-2.13,2.81-2.75
		c1.22-0.62,2.55-0.94,4.01-0.94c1.65,0,3.05,0.4,4.17,1.19c1.12,0.79,1.91,1.91,2.35,3.35l-2.16,0.48
		c-0.38-1.14-0.94-1.96-1.67-2.48c-0.73-0.52-1.65-0.77-2.75-0.77c-1.27,0-2.33,0.28-3.19,0.86c-0.85,0.57-1.45,1.34-1.8,2.31
		c-0.35,0.97-0.52,1.96-0.52,2.99c0,1.32,0.21,2.48,0.62,3.47s1.05,1.73,1.91,2.22c0.87,0.49,1.8,0.73,2.81,0.73
		c1.23,0,2.26-0.33,3.11-1C1006.23,471.79,1006.81,470.79,1007.11,469.48z"/>
</g>
<rect x="1037.41" y="454.8" class="st1" width="34.92" height="17.46"/>
<text transform="matrix(1.0614 0 0 1 1037.405 473.338)" class="st2 st3 st4">+</text>
<g class="st5">
	<g>
		<path d="M1043.22,481.56c8.29-7.34,16.57-14.69,24.87-22.03c0.38-0.33-0.19-0.86-0.56-0.53c-8.29,7.34-16.57,14.69-24.87,22.03
			C1042.28,481.36,1042.85,481.89,1043.22,481.56L1043.22,481.56z"/>
	</g>
</g>
<rect x="1106.6" y="461.84" class="st1" width="27.08" height="20.14"/>
<text transform="matrix(1.0614 0 0 1 1106.5979 477.2931)" class="st2 st3 st4">%</text>
<g>
	<g>
		<path d="M2046.34,608.8c3.22,0,3.22-5,0-5C2043.12,603.8,2043.11,608.8,2046.34,608.8L2046.34,608.8z"/>
	</g>
</g>
<g>
	<g>
		<path d="M2046.34,608.8c3.22,0,3.22-5,0-5C2043.12,603.8,2043.11,608.8,2046.34,608.8L2046.34,608.8z"/>
	</g>
</g>
<rect x="989.86" y="519.25" class="st1" width="69.13" height="53.05"/>
<text transform="matrix(1.0614 0 0 1 989.8592 534.7032)" class="st2 st3 st4">7</text>
<rect x="1050.72" y="519.25" class="st1" width="44.19" height="29.55"/>
<text transform="matrix(1.0614 0 0 1 1050.7253 534.7042)" class="st2 st3 st4">8</text>
<rect x="1080.94" y="519.25" class="st1" width="78.4" height="34.92"/>
<text transform="matrix(1.0614 0 0 1 1108.9573 534.7037)" class="st2 st3 st4">9</text>
<text transform="matrix(1.0614 0 0 1 989.8587 592.4503)" class="st2 st3 st4">4</text>
<rect x="1050.72" y="577" class="st1" width="76.26" height="63.79"/>
<text transform="matrix(1.0614 0 0 1 1050.7253 592.4503)" class="st2 st3 st4">5</text>
<rect x="1108.96" y="576.17" class="st1" width="39.2" height="27.53"/>
<text transform="matrix(1.0614 0 0 1 1108.9573 591.6154)" class="st2 st3 st4">6</text>
<text transform="matrix(1.0614 0 0 1 988.5838 648.1232)" class="st2 st3 st4">1</text>
<text transform="matrix(1.0614 0 0 1 1050.7253 650.3561)" class="st2 st3 st4">2</text>
<text transform="matrix(1.0614 0 0 1 1108.9597 650.3561)" class="st2 st3 st4">3</text>
<rect x="1064.28" y="458.52" class="st1" width="59.15" height="23.5"/>
<text transform="matrix(1.0614 0 0 1 1064.2791 479.9757)" class="st2 st3 st6">-</text>
<rect x="1054.87" y="354.84" class="st7" width="96.86" height="65.27"/>
<path class="st8" d="M937.48,363.3"/>
<path class="st8" d="M1397.77,302.12"/>
<line class="st9" x1="1166.38" y1="472.26" x2="1191.4" y2="472.26"/>
<line class="st10" x1="1171.7" y1="535.82" x2="1189.56" y2="519.31"/>
<line class="st9" x1="1188.63" y1="535.53" x2="1171.1" y2="518.7"/>
<line class="st9" x1="1167.24" y1="589.94" x2="1192.26" y2="589.94"/>
<line class="st9" x1="1166.38" y1="700.4" x2="1191.4" y2="700.4"/>
<line class="st9" x1="1166.38" y1="708.09" x2="1191.4" y2="708.09"/>
<rect x="987.09" y="694.59" class="st1" width="69.28" height="47.74"/>
<text transform="matrix(1.0614 0 0 1 987.0887 710.0333)" class="st2 st3 st4">0</text>
<rect x="1113.88" y="686.63" class="st1" width="80.82" height="42.91"/>
<text transform="matrix(1.0614 0 0 1 1113.8796 702.0812)" class="st2 st3 st11">.</text>
<line class="st10" x1="1166.71" y1="640.8" x2="1191.73" y2="640.8"/>
<line class="st9" x1="1178.89" y1="629.01" x2="1178.89" y2="652.58"/>
<line class="st12" x1="977.07" y1="439.31" x2="1200.64" y2="439.31"/>
<radialGradient id="SVGID_2_" cx="688.3924" cy="285.3187" r="354.0925" gradientUnits="userSpaceOnUse">
	<stop  offset="0.2193" style="stop-color:#FFFFFF;stop-opacity:0"/>
	<stop  offset="1" style="stop-color:#000000"/>
</radialGradient>
<path class="st13" d="M860.3,590.24H516.5c-11.51,0-20.84-8.28-20.84-18.47V-1.13c0-10.2,9.33-18.47,20.84-18.47h343.79
	c11.51,0,20.84,8.28,20.84,18.47v572.9C881.13,581.97,871.81,590.24,860.3,590.24z"/>
<rect x="515.86" y="139.58" class="st1" width="47.78" height="41.11"/>
<g class="st2">
	<path d="M515.81,165.14l9.9-25.77h3.67l10.55,25.77h-3.88l-3.01-7.8h-10.78l-2.83,7.8H515.81z M523.24,154.55h8.74l-2.69-7.14
		c-0.82-2.17-1.43-3.95-1.83-5.34c-0.33,1.65-0.79,3.29-1.39,4.92L523.24,154.55z"/>
	<path d="M560.96,156.1l3.41,0.86c-0.71,2.8-2,4.94-3.86,6.41s-4.13,2.21-6.81,2.21c-2.78,0-5.04-0.57-6.78-1.7
		c-1.74-1.13-3.06-2.77-3.97-4.91c-0.91-2.14-1.36-4.45-1.36-6.91c0-2.68,0.51-5.02,1.54-7.02c1.03-2,2.48-3.52,4.38-4.55
		c1.9-1.03,3.98-1.56,6.25-1.56c2.58,0,4.75,0.66,6.5,1.97s2.98,3.16,3.67,5.54l-3.36,0.79c-0.6-1.88-1.46-3.24-2.6-4.1
		c-1.14-0.86-2.57-1.28-4.29-1.28c-1.98,0-3.64,0.47-4.97,1.42s-2.26,2.22-2.8,3.82c-0.54,1.6-0.81,3.25-0.81,4.95
		c0,2.19,0.32,4.1,0.96,5.74s1.63,2.86,2.98,3.67c1.35,0.81,2.81,1.21,4.38,1.21c1.91,0,3.53-0.55,4.85-1.65
		S560.49,158.27,560.96,156.1z"/>
</g>
<rect x="608.19" y="131.8" class="st1" width="54.44" height="28.89"/>
<text transform="matrix(1 0 0 1 608.185 162.4788)" class="st2 st3 st14">+</text>
<g class="st5">
	<g>
		<path d="M617.25,176.08c12.92-12.15,25.84-24.31,38.77-36.46c0.59-0.55-0.3-1.43-0.88-0.88c-12.92,12.15-25.84,24.31-38.77,36.46
			C615.78,175.75,616.67,176.63,617.25,176.08L617.25,176.08z"/>
	</g>
</g>
<rect x="716.06" y="143.46" class="st1" width="42.22" height="33.33"/>
<text transform="matrix(1 0 0 1 716.0553 169.023)" class="st2 st3 st14">%</text>
<rect x="534.06" y="238.46" class="st1" width="107.78" height="87.78"/>
<text transform="matrix(1 0 0 1 534.0612 264.0226)" class="st2 st3 st14">7</text>
<rect x="628.95" y="238.46" class="st1" width="68.89" height="48.89"/>
<text transform="matrix(1 0 0 1 628.9513 264.0233)" class="st2 st3 st14">8</text>
<rect x="676.06" y="238.46" class="st1" width="122.22" height="57.78"/>
<text transform="matrix(1 0 0 1 719.7333 264.023)" class="st2 st3 st14">9</text>
<text transform="matrix(1 0 0 1 534.0608 359.5788)" class="st2 st3 st14">4</text>
<rect x="628.95" y="334.02" class="st1" width="118.89" height="105.56"/>
<text transform="matrix(1 0 0 1 628.951 359.5785)" class="st2 st3 st14">5</text>
<rect x="719.74" y="332.64" class="st1" width="61.11" height="45.56"/>
<text transform="matrix(1 0 0 1 719.7336 358.1967)" class="st2 st3 st14">6</text>
<text transform="matrix(1 0 0 1 532.0739 451.7022)" class="st2 st3 st14">1</text>
<text transform="matrix(1 0 0 1 628.9512 455.3977)" class="st2 st3 st14">2</text>
<text transform="matrix(1 0 0 1 719.7373 455.3976)" class="st2 st3 st14">3</text>
<rect x="650.08" y="137.96" class="st1" width="92.22" height="38.89"/>
<text transform="matrix(1 0 0 1 650.0812 173.4621)" class="st2 st3 st15">-</text>
<rect x="635.41" y="-33.6" class="st7" width="151" height="108"/>
<path class="st8" d="M452.41,115.14"/>
<path class="st8" d="M757.77,267.38"/>
<line class="st9" x1="809.26" y1="160.69" x2="848.26" y2="160.69"/>
<line class="st10" x1="817.54" y1="265.88" x2="845.38" y2="238.56"/>
<line class="st9" x1="843.94" y1="265.39" x2="816.62" y2="237.55"/>
<line class="st9" x1="810.6" y1="355.42" x2="849.6" y2="355.42"/>
<line class="st9" x1="809.26" y1="538.21" x2="848.26" y2="538.21"/>
<line class="st9" x1="809.26" y1="550.93" x2="848.26" y2="550.93"/>
<rect x="529.74" y="528.59" class="st1" width="108" height="79"/>
<text transform="matrix(1 0 0 1 529.7424 554.1483)" class="st2 st3 st14">0</text>
<rect x="727.41" y="515.43" class="st1" width="126" height="71"/>
<text transform="matrix(1 0 0 1 727.4074 540.9883)" class="st2 st3 st16">.</text>
<line class="st10" x1="809.77" y1="439.58" x2="848.77" y2="439.58"/>
<line class="st9" x1="828.76" y1="420.08" x2="828.76" y2="459.08"/>
<line class="st12" x1="514.12" y1="106.18" x2="862.67" y2="106.18"/>
<radialGradient id="SVGID_3_" cx="353.7524" cy="537.6172" r="354.0925" gradientTransform="matrix(0.6414 0 0 0.5675 42.2262 76.854)" gradientUnits="userSpaceOnUse">
	<stop  offset="0.2193" style="stop-color:#FFFFFF;stop-opacity:0"/>
	<stop  offset="1" style="stop-color:#000000"/>
</radialGradient>
<path class="st17" d="M379.41,554.99H158.88c-7.38,0-13.37-4.7-13.37-10.48V219.39c0-5.79,5.98-10.48,13.37-10.48H379.4
	c7.38,0,13.37,4.7,13.37,10.48v325.12C392.77,550.3,386.79,554.99,379.41,554.99z"/>
<rect x="158.47" y="299.24" class="st1" width="30.65" height="23.33"/>
<g class="st2">
	<path d="M158.43,313.75l6.35-14.62h2.35l6.77,14.62h-2.49l-1.93-4.43h-6.91l-1.82,4.43H158.43z M163.2,307.74h5.61l-1.73-4.05
		c-0.53-1.23-0.92-2.24-1.17-3.03c-0.21,0.94-0.51,1.87-0.89,2.79L163.2,307.74z"/>
	<path d="M187.4,308.62l2.19,0.49c-0.46,1.59-1.28,2.8-2.48,3.64s-2.65,1.25-4.37,1.25c-1.78,0-3.23-0.32-4.35-0.96
		c-1.12-0.64-1.96-1.57-2.55-2.79c-0.58-1.21-0.87-2.53-0.87-3.92c0-1.52,0.33-2.85,0.99-3.98c0.66-1.13,1.59-2,2.81-2.58
		c1.22-0.58,2.55-0.89,4.01-0.89c1.65,0,3.05,0.37,4.17,1.12c1.12,0.74,1.91,1.79,2.35,3.14l-2.16,0.45
		c-0.38-1.07-0.94-1.84-1.67-2.33c-0.73-0.49-1.65-0.73-2.75-0.73c-1.27,0-2.33,0.27-3.19,0.81c-0.85,0.54-1.45,1.26-1.8,2.17
		c-0.35,0.91-0.52,1.84-0.52,2.81c0,1.24,0.21,2.33,0.62,3.26c0.41,0.93,1.05,1.62,1.91,2.08c0.87,0.46,1.8,0.69,2.81,0.69
		c1.23,0,2.26-0.31,3.11-0.94C186.52,310.78,187.09,309.85,187.4,308.62z"/>
</g>
<rect x="217.69" y="294.83" class="st1" width="34.92" height="16.4"/>
<text transform="matrix(1.1303 0 0 1 217.6902 312.2404)" class="st2 st3 st18">+</text>
<g class="st5">
	<g>
		<path d="M223.5,319.96c8.29-6.9,16.57-13.8,24.87-20.69c0.38-0.31-0.19-0.81-0.56-0.5c-8.29,6.9-16.57,13.8-24.87,20.69
			C222.56,319.77,223.13,320.27,223.5,319.96L223.5,319.96z"/>
	</g>
</g>
<rect x="286.88" y="301.45" class="st1" width="27.08" height="18.91"/>
<text transform="matrix(1.1303 0 0 1 286.8831 315.9543)" class="st2 st3 st18">%</text>
<rect x="170.14" y="355.36" class="st1" width="69.13" height="49.82"/>
<text transform="matrix(1.1303 0 0 1 170.1438 369.8664)" class="st2 st3 st18">7</text>
<rect x="231.01" y="355.36" class="st1" width="44.19" height="27.75"/>
<text transform="matrix(1.1303 0 0 1 231.0105 369.8669)" class="st2 st3 st18">8</text>
<rect x="261.23" y="355.36" class="st1" width="78.4" height="32.79"/>
<text transform="matrix(1.1303 0 0 1 289.242 369.8669)" class="st2 st3 st18">9</text>
<text transform="matrix(1.1303 0 0 1 170.1434 424.0949)" class="st2 st3 st18">4</text>
<rect x="231.01" y="409.59" class="st1" width="76.26" height="59.91"/>
<text transform="matrix(1.1303 0 0 1 231.0105 424.0949)" class="st2 st3 st18">5</text>
<rect x="289.24" y="408.81" class="st1" width="39.2" height="25.86"/>
<text transform="matrix(1.1303 0 0 1 289.2425 423.3107)" class="st2 st3 st18">6</text>
<text transform="matrix(1.1303 0 0 1 168.8689 476.3747)" class="st2 st3 st18">1</text>
<text transform="matrix(1.1303 0 0 1 231.0105 478.4718)" class="st2 st3 st18">2</text>
<text transform="matrix(1.1303 0 0 1 289.2449 478.4718)" class="st2 st3 st18">3</text>
<rect x="244.56" y="298.33" class="st1" width="59.15" height="22.07"/>
<text transform="matrix(1.1303 0 0 1 244.5643 318.4733)" class="st2 st3 st19">-</text>
<rect x="235.15" y="200.96" class="st7" width="96.86" height="61.29"/>
<path class="st8" d="M117.77,208.91"/>
<path class="st8" d="M117.77,177.7"/>
<line class="st9" x1="346.67" y1="311.22" x2="371.68" y2="311.22"/>
<line class="st10" x1="351.98" y1="370.92" x2="369.84" y2="355.41"/>
<line class="st9" x1="368.91" y1="370.64" x2="351.39" y2="354.84"/>
<line class="st9" x1="347.53" y1="421.73" x2="372.54" y2="421.73"/>
<line class="st9" x1="346.67" y1="525.47" x2="371.68" y2="525.47"/>
<line class="st9" x1="346.67" y1="532.69" x2="371.68" y2="532.69"/>
<rect x="167.37" y="520.01" class="st1" width="69.28" height="44.83"/>
<text transform="matrix(1.1303 0 0 1 167.3738 534.5128)" class="st2 st3 st18">0</text>
<rect x="294.16" y="512.54" class="st1" width="80.82" height="40.29"/>
<text transform="matrix(1.1303 0 0 1 294.1648 527.0446)" class="st2 st3 st20">.</text>
<line class="st10" x1="346.99" y1="469.49" x2="372.01" y2="469.49"/>
<line class="st9" x1="359.17" y1="458.43" x2="359.17" y2="480.56"/>
<line class="st12" x1="157.35" y1="280.29" x2="380.93" y2="280.29"/>
<radialGradient id="SVGID_4_" cx="1489.1538" cy="197.8555" r="354.0925" gradientTransform="matrix(0.6414 0 0 0.6043 336.1396 293.7218)" gradientUnits="userSpaceOnUse">
	<stop  offset="0.2193" style="stop-color:#FFFFFF;stop-opacity:0"/>
	<stop  offset="1" style="stop-color:#000000"/>
</radialGradient>
<path class="st21" d="M1401.62,597.56h-220.53c-7.38,0-13.37-5-13.37-11.16V240.18c0-6.17,5.98-11.16,13.37-11.16h220.52
	c7.38,0,13.37,5,13.37,11.16V586.4C1414.98,592.57,1409,597.56,1401.62,597.56z"/>
<rect x="1180.68" y="325.22" class="st1" width="30.65" height="24.84"/>
<g class="st2">
	<path d="M1180.65,340.66l6.35-15.57h2.35l6.77,15.57h-2.49l-1.93-4.71h-6.91l-1.82,4.71H1180.65z M1185.41,334.26h5.61l-1.73-4.31
		c-0.53-1.31-0.92-2.39-1.17-3.23c-0.21,1-0.51,1.99-0.89,2.97L1185.41,334.26z"/>
	<path d="M1209.61,335.2l2.19,0.52c-0.46,1.69-1.28,2.99-2.48,3.87c-1.19,0.89-2.65,1.34-4.37,1.34c-1.78,0-3.23-0.34-4.35-1.03
		c-1.12-0.68-1.96-1.67-2.55-2.97c-0.58-1.29-0.87-2.69-0.87-4.18c0-1.62,0.33-3.03,0.99-4.24c0.66-1.21,1.59-2.13,2.81-2.75
		c1.22-0.62,2.55-0.94,4.01-0.94c1.65,0,3.05,0.4,4.17,1.19c1.12,0.79,1.91,1.91,2.35,3.35l-2.16,0.48
		c-0.38-1.14-0.94-1.96-1.67-2.48c-0.73-0.52-1.65-0.77-2.75-0.77c-1.27,0-2.33,0.28-3.19,0.86c-0.85,0.57-1.45,1.34-1.8,2.31
		c-0.35,0.97-0.52,1.96-0.52,2.99c0,1.32,0.21,2.48,0.62,3.47c0.41,0.99,1.05,1.73,1.91,2.22c0.87,0.49,1.8,0.73,2.81,0.73
		c1.23,0,2.26-0.33,3.11-1C1208.73,337.5,1209.3,336.51,1209.61,335.2z"/>
</g>
<rect x="1239.9" y="320.51" class="st1" width="34.92" height="17.46"/>
<text transform="matrix(1.0614 0 0 1 1239.9003 339.0554)" class="st2 st3 st4">+</text>
<g class="st5">
	<g>
		<path d="M1245.71,347.27c8.29-7.34,16.57-14.69,24.87-22.03c0.38-0.33-0.19-0.86-0.56-0.53c-8.29,7.34-16.57,14.69-24.87,22.03
			C1244.77,347.07,1245.34,347.61,1245.71,347.27L1245.71,347.27z"/>
	</g>
</g>
<rect x="1309.09" y="327.56" class="st1" width="27.08" height="20.14"/>
<text transform="matrix(1.0614 0 0 1 1309.0931 343.0104)" class="st2 st3 st4">%</text>
<rect x="1192.35" y="384.97" class="st1" width="69.13" height="53.05"/>
<text transform="matrix(1.0614 0 0 1 1192.3544 400.4206)" class="st2 st3 st4">7</text>
<rect x="1253.22" y="384.97" class="st1" width="44.19" height="29.55"/>
<text transform="matrix(1.0614 0 0 1 1253.2206 400.4216)" class="st2 st3 st4">8</text>
<rect x="1283.44" y="384.97" class="st1" width="78.4" height="34.92"/>
<text transform="matrix(1.0614 0 0 1 1311.4525 400.4211)" class="st2 st3 st4">9</text>
<text transform="matrix(1.0614 0 0 1 1192.3539 458.1677)" class="st2 st3 st4">4</text>
<rect x="1253.22" y="442.72" class="st1" width="76.26" height="63.79"/>
<text transform="matrix(1.0614 0 0 1 1253.2206 458.1677)" class="st2 st3 st4">5</text>
<rect x="1311.45" y="441.89" class="st1" width="39.2" height="27.53"/>
<text transform="matrix(1.0614 0 0 1 1311.4525 457.3327)" class="st2 st3 st4">6</text>
<text transform="matrix(1.0614 0 0 1 1191.079 513.8405)" class="st2 st3 st4">1</text>
<text transform="matrix(1.0614 0 0 1 1253.2206 516.0734)" class="st2 st3 st4">2</text>
<text transform="matrix(1.0614 0 0 1 1311.455 516.0734)" class="st2 st3 st4">3</text>
<rect x="1266.77" y="324.24" class="st1" width="59.15" height="23.5"/>
<text transform="matrix(1.0614 0 0 1 1266.7743 345.6931)" class="st2 st3 st6">-</text>
<rect x="1257.36" y="220.56" class="st7" width="96.86" height="65.27"/>
<line class="st9" x1="1368.88" y1="337.97" x2="1393.89" y2="337.97"/>
<line class="st10" x1="1374.19" y1="401.54" x2="1392.05" y2="385.03"/>
<line class="st9" x1="1391.12" y1="401.25" x2="1373.6" y2="384.42"/>
<line class="st9" x1="1369.74" y1="455.65" x2="1394.75" y2="455.65"/>
<line class="st9" x1="1368.88" y1="566.12" x2="1393.89" y2="566.12"/>
<line class="st9" x1="1368.88" y1="573.81" x2="1393.89" y2="573.81"/>
<rect x="1189.58" y="560.3" class="st1" width="69.28" height="47.74"/>
<text transform="matrix(1.0614 0 0 1 1189.5839 575.7507)" class="st2 st3 st4">0</text>
<rect x="1316.37" y="552.35" class="st1" width="80.82" height="42.91"/>
<text transform="matrix(1.0614 0 0 1 1316.3749 567.7985)" class="st2 st3 st11">.</text>
<line class="st10" x1="1369.2" y1="506.51" x2="1394.22" y2="506.51"/>
<line class="st9" x1="1381.39" y1="494.73" x2="1381.39" y2="518.3"/>
<line class="st12" x1="1179.56" y1="305.03" x2="1403.14" y2="305.03"/>
<radialGradient id="SVGID_5_" cx="1373.2972" cy="480.3606" r="354.0925" gradientTransform="matrix(1.3116 0 0 1.2358 -116.3565 176.5718)" gradientUnits="userSpaceOnUse">
	<stop  offset="0.2193" style="stop-color:#FFFFFF;stop-opacity:0"/>
	<stop  offset="1" style="stop-color:#000000"/>
</radialGradient>
<path class="st22" d="M1910.39,1146.99h-450.94c-15.1,0-27.33-10.23-27.33-22.83V416.2c0-12.61,12.24-22.83,27.33-22.83h450.93
	c15.1,0,27.33,10.23,27.33,22.83v707.96C1937.71,1136.77,1925.49,1146.99,1910.39,1146.99z"/>
<rect x="1458.61" y="590.08" class="st1" width="62.67" height="50.8"/>
<g class="st2">
	<path d="M1458.54,621.67l12.99-31.85h4.81l13.84,31.85h-5.09l-3.95-9.64H1467l-3.71,9.64H1458.54z M1468.29,608.58h11.46
		l-3.53-8.82c-1.08-2.68-1.88-4.88-2.4-6.6c-0.43,2.04-1.04,4.07-1.82,6.08L1468.29,608.58z"/>
	<path d="M1517.76,610.5l4.47,1.06c-0.93,3.46-2.62,6.1-5.06,7.92c-2.44,1.82-5.42,2.73-8.93,2.73c-3.65,0-6.61-0.7-8.89-2.1
		s-4.01-3.42-5.21-6.07s-1.78-5.5-1.78-8.54c0-3.31,0.67-6.2,2.02-8.67c1.35-2.47,3.25-4.35,5.74-5.62c2.49-1.27,5.22-1.93,8.2-1.93
		c3.38,0,6.23,0.82,8.53,2.43c2.3,1.62,3.91,3.9,4.81,6.85l-4.41,0.98c-0.79-2.32-1.91-4-3.41-5.07c-1.5-1.06-3.37-1.58-5.63-1.58
		c-2.6,0-4.77,0.58-6.52,1.75c-1.74,1.17-2.96,2.74-3.67,4.72c-0.71,1.98-1.06,4.02-1.06,6.12c0,2.71,0.42,5.07,1.26,7.09
		c0.84,2.03,2.14,3.53,3.91,4.54c1.77,1,3.69,1.5,5.74,1.5c2.51,0,4.63-0.68,6.36-2.04C1515.97,615.2,1517.15,613.18,1517.76,610.5z
		"/>
</g>
<rect x="1579.71" y="580.47" class="st1" width="71.41" height="35.7"/>
<text transform="matrix(1.0614 0 0 1 1579.7098 618.3807)" class="st2 st3 st23">+</text>
<g class="st5">
	<g>
		<path d="M1591.6,635.19c16.95-15.01,33.89-30.04,50.85-45.06c0.77-0.68-0.39-1.77-1.15-1.09c-16.95,15.01-33.89,30.04-50.85,45.06
			C1589.67,634.78,1590.84,635.87,1591.6,635.19L1591.6,635.19z"/>
	</g>
</g>
<rect x="1721.2" y="594.88" class="st1" width="55.38" height="41.19"/>
<text transform="matrix(1.0614 0 0 1 1721.1971 626.4686)" class="st2 st3 st23">%</text>
<rect x="1482.48" y="712.27" class="st1" width="141.37" height="108.47"/>
<text transform="matrix(1.0614 0 0 1 1482.4872 743.8646)" class="st2 st3 st23">7</text>
<rect x="1606.94" y="712.27" class="st1" width="90.36" height="60.42"/>
<text transform="matrix(1.0614 0 0 1 1606.9481 743.8665)" class="st2 st3 st23">8</text>
<rect x="1668.73" y="712.27" class="st1" width="160.31" height="71.4"/>
<text transform="matrix(1.0614 0 0 1 1726.0214 743.8646)" class="st2 st3 st23">9</text>
<text transform="matrix(1.0614 0 0 1 1482.4862 861.9485)" class="st2 st3 st23">4</text>
<rect x="1606.94" y="830.36" class="st1" width="155.94" height="130.45"/>
<text transform="matrix(1.0614 0 0 1 1606.9481 861.9485)" class="st2 st3 st23">5</text>
<rect x="1726.03" y="828.66" class="st1" width="80.15" height="56.3"/>
<text transform="matrix(1.0614 0 0 1 1726.0214 860.2415)" class="st2 st3 st23">6</text>
<text transform="matrix(1.0614 0 0 1 1479.8798 975.7923)" class="st2 st3 st23">1</text>
<text transform="matrix(1.0614 0 0 1 1606.9481 980.3568)" class="st2 st3 st23">2</text>
<text transform="matrix(1.0614 0 0 1 1726.0262 980.3568)" class="st2 st3 st23">3</text>
<rect x="1634.66" y="588.08" class="st1" width="120.96" height="48.06"/>
<text transform="matrix(1.0614 0 0 1 1634.663 631.9539)" class="st2 st3 st24">-</text>
<rect x="1615.42" y="376.07" class="st7" width="198.06" height="133.46"/>
<line class="st9" x1="1843.44" y1="616.17" x2="1894.6" y2="616.17"/>
<line class="st10" x1="1854.31" y1="746.15" x2="1890.83" y2="712.39"/>
<line class="st9" x1="1888.93" y1="745.55" x2="1853.1" y2="711.15"/>
<line class="st9" x1="1845.2" y1="856.81" x2="1896.36" y2="856.81"/>
<line class="st9" x1="1843.44" y1="1082.69" x2="1894.6" y2="1082.69"/>
<line class="st9" x1="1843.44" y1="1098.41" x2="1894.6" y2="1098.41"/>
<rect x="1476.81" y="1070.8" class="st1" width="141.66" height="97.62"/>
<text transform="matrix(1.0614 0 0 1 1476.8221 1102.39)" class="st2 st3 st23">0</text>
<rect x="1736.09" y="1054.54" class="st1" width="165.27" height="87.74"/>
<text transform="matrix(1.0614 0 0 1 1736.0868 1086.1283)" class="st2 st3 st25">.</text>
<line class="st10" x1="1844.11" y1="960.81" x2="1895.27" y2="960.81"/>
<line class="st9" x1="1869.02" y1="936.71" x2="1869.02" y2="984.91"/>
<line class="st12" x1="1456.33" y1="548.81" x2="1913.5" y2="548.81"/>
<radialGradient id="SVGID_6_" cx="-244.0464" cy="886.3254" r="354.0925" gradientTransform="matrix(1.112 0 0 1.0713 541.6866 28.7518)" gradientUnits="userSpaceOnUse">
	<stop  offset="0.2193" style="stop-color:#FFFFFF;stop-opacity:0"/>
	<stop  offset="1" style="stop-color:#000000"/>
</radialGradient>
<path class="st26" d="M461.46,1304.94H79.14c-12.8,0-23.17-8.87-23.17-19.79V671.4c0-10.93,10.38-19.79,23.17-19.79h382.31
	c12.8,0,23.17,8.87,23.17,19.79v613.75C484.63,1296.09,474.26,1304.94,461.46,1304.94z"/>
<rect x="78.43" y="822.15" class="st1" width="53.13" height="44.04"/>
<g class="st2">
	<path d="M78.38,849.53l11.01-27.61h4.08l11.73,27.61h-4.31l-3.35-8.36H85.55l-3.15,8.36H78.38z M86.64,838.19h9.72l-2.99-7.65
		c-0.91-2.32-1.59-4.23-2.04-5.72c-0.37,1.77-0.88,3.52-1.55,5.27L86.64,838.19z"/>
	<path d="M128.58,839.85l3.79,0.92c-0.79,3-2.22,5.29-4.29,6.87c-2.07,1.57-4.59,2.37-7.57,2.37c-3.09,0-5.6-0.61-7.54-1.82
		c-1.93-1.21-3.4-2.97-4.41-5.26c-1.01-2.29-1.51-4.77-1.51-7.4c0-2.87,0.57-5.38,1.71-7.52c1.15-2.14,2.76-3.77,4.87-4.87
		c2.11-1.1,4.43-1.67,6.95-1.67c2.87,0,5.28,0.71,7.23,2.11c1.95,1.4,3.31,3.39,4.08,5.94l-3.74,0.85
		c-0.67-2.01-1.62-3.47-2.89-4.39c-1.27-0.92-2.86-1.37-4.77-1.37c-2.2,0-4.05,0.5-5.53,1.52c-1.48,1.02-2.51,2.38-3.11,4.09
		s-0.9,3.48-0.9,5.3c0,2.35,0.36,4.39,1.07,6.15c0.71,1.76,1.81,3.06,3.31,3.93s3.12,1.3,4.87,1.3c2.12,0,3.93-0.59,5.39-1.77
		C127.06,843.93,128.06,842.17,128.58,839.85z"/>
</g>
<rect x="181.11" y="813.81" class="st1" width="60.54" height="30.95"/>
<text transform="matrix(1.038 0 0 1 181.1038 846.6808)" class="st2 st3 st27">+</text>
<g class="st5">
	<g>
		<path d="M191.18,861.25c14.37-13.02,28.74-26.04,43.11-39.06c0.66-0.59-0.33-1.53-0.98-0.94c-14.37,13.02-28.74,26.04-43.11,39.06
			C189.55,860.9,190.54,861.84,191.18,861.25L191.18,861.25z"/>
	</g>
</g>
<rect x="301.06" y="826.3" class="st1" width="46.95" height="35.71"/>
<text transform="matrix(1.038 0 0 1 301.0598 853.6915)" class="st2 st3 st27">%</text>
<rect x="98.67" y="928.08" class="st1" width="119.86" height="94.04"/>
<text transform="matrix(1.038 0 0 1 98.6761 955.465)" class="st2 st3 st27">7</text>
<rect x="204.19" y="928.08" class="st1" width="76.61" height="52.38"/>
<text transform="matrix(1.038 0 0 1 204.1966 955.4669)" class="st2 st3 st27">8</text>
<rect x="256.58" y="928.08" class="st1" width="135.91" height="61.9"/>
<text transform="matrix(1.038 0 0 1 305.1507 955.4659)" class="st2 st3 st27">9</text>
<text transform="matrix(1.038 0 0 1 98.6751 1057.8361)" class="st2 st3 st27">4</text>
<rect x="204.19" y="1030.45" class="st1" width="132.21" height="113.09"/>
<text transform="matrix(1.038 0 0 1 204.1966 1057.8361)" class="st2 st3 st27">5</text>
<rect x="305.15" y="1028.97" class="st1" width="67.96" height="48.81"/>
<text transform="matrix(1.038 0 0 1 305.1507 1056.3556)" class="st2 st3 st27">6</text>
<text transform="matrix(1.038 0 0 1 96.4651 1156.5294)" class="st2 st3 st27">1</text>
<text transform="matrix(1.038 0 0 1 204.1966 1160.4874)" class="st2 st3 st27">2</text>
<text transform="matrix(1.038 0 0 1 305.1546 1160.4874)" class="st2 st3 st27">3</text>
<rect x="227.69" y="820.41" class="st1" width="102.55" height="41.66"/>
<text transform="matrix(1.038 0 0 1 227.6936 858.4474)" class="st2 st3 st28">-</text>
<rect x="211.38" y="636.62" class="st7" width="167.92" height="115.7"/>
<line class="st9" x1="404.7" y1="844.76" x2="448.07" y2="844.76"/>
<line class="st10" x1="413.92" y1="957.45" x2="444.88" y2="928.18"/>
<line class="st9" x1="443.27" y1="956.93" x2="412.89" y2="927.1"/>
<line class="st9" x1="406.19" y1="1053.38" x2="449.56" y2="1053.38"/>
<line class="st9" x1="404.7" y1="1249.2" x2="448.07" y2="1249.2"/>
<line class="st9" x1="404.7" y1="1262.83" x2="448.07" y2="1262.83"/>
<rect x="93.87" y="1238.9" class="st1" width="120.1" height="84.63"/>
<text transform="matrix(1.038 0 0 1 93.8733 1266.2794)" class="st2 st3 st27">0</text>
<rect x="313.68" y="1224.8" class="st1" width="140.12" height="76.06"/>
<text transform="matrix(1.038 0 0 1 313.6839 1252.1827)" class="st2 st3 st29">.</text>
<line class="st10" x1="405.27" y1="1143.54" x2="448.64" y2="1143.54"/>
<line class="st9" x1="426.39" y1="1122.65" x2="426.39" y2="1164.43"/>
<line class="st12" x1="76.5" y1="786.37" x2="464.1" y2="786.37"/>
<radialGradient id="SVGID_7_" cx="824.2055" cy="1227.1348" r="354.0925" gradientTransform="matrix(0.6414 0 0 0.6043 336.1396 293.7218)" gradientUnits="userSpaceOnUse">
	<stop  offset="0.2193" style="stop-color:#FFFFFF;stop-opacity:0"/>
	<stop  offset="1" style="stop-color:#000000"/>
</radialGradient>
<path class="st30" d="M975.09,1219.58H754.56c-7.38,0-13.37-5-13.37-11.16V862.2c0-6.17,5.98-11.16,13.37-11.16h220.52
	c7.38,0,13.37,5,13.37,11.16v346.22C988.45,1214.58,982.47,1219.58,975.09,1219.58z"/>
<rect x="754.15" y="947.23" class="st1" width="30.65" height="24.84"/>
<g class="st2">
	<path d="M754.12,962.68l6.35-15.57h2.35l6.77,15.57h-2.49l-1.93-4.71h-6.91l-1.82,4.71H754.12z M758.88,956.28h5.61l-1.73-4.31
		c-0.53-1.31-0.92-2.39-1.17-3.23c-0.21,1-0.51,1.99-0.89,2.97L758.88,956.28z"/>
	<path d="M783.08,957.22l2.19,0.52c-0.46,1.69-1.28,2.99-2.48,3.87c-1.19,0.89-2.65,1.34-4.37,1.34c-1.78,0-3.23-0.34-4.35-1.03
		c-1.12-0.68-1.96-1.67-2.55-2.97c-0.58-1.29-0.87-2.69-0.87-4.18c0-1.62,0.33-3.03,0.99-4.24c0.66-1.21,1.59-2.13,2.81-2.75
		c1.22-0.62,2.55-0.94,4.01-0.94c1.65,0,3.05,0.4,4.17,1.19c1.12,0.79,1.91,1.91,2.35,3.35l-2.16,0.48
		c-0.38-1.14-0.94-1.96-1.67-2.48c-0.73-0.52-1.65-0.77-2.75-0.77c-1.27,0-2.33,0.28-3.19,0.86c-0.85,0.57-1.45,1.34-1.8,2.31
		c-0.35,0.97-0.52,1.96-0.52,2.99c0,1.32,0.21,2.48,0.62,3.47c0.41,0.99,1.05,1.73,1.91,2.22c0.87,0.49,1.8,0.73,2.81,0.73
		c1.23,0,2.26-0.33,3.11-1C782.2,959.52,782.78,958.53,783.08,957.22z"/>
</g>
<rect x="813.37" y="942.53" class="st1" width="34.92" height="17.46"/>
<text transform="matrix(1.0614 0 0 1 813.373 961.0733)" class="st2 st3 st4">+</text>
<g class="st5">
	<g>
		<path d="M819.19,969.29c8.29-7.34,16.57-14.69,24.87-22.03c0.38-0.33-0.19-0.86-0.56-0.53c-8.29,7.34-16.57,14.69-24.87,22.03
			C818.24,969.09,818.81,969.62,819.19,969.29L819.19,969.29z"/>
	</g>
</g>
<rect x="882.57" y="949.58" class="st1" width="27.08" height="20.14"/>
<text transform="matrix(1.0614 0 0 1 882.5659 965.0284)" class="st2 st3 st4">%</text>
<rect x="765.82" y="1006.99" class="st1" width="69.13" height="53.05"/>
<text transform="matrix(1.0614 0 0 1 765.8271 1022.4385)" class="st2 st3 st4">7</text>
<rect x="826.69" y="1006.99" class="st1" width="44.19" height="29.55"/>
<text transform="matrix(1.0614 0 0 1 826.6934 1022.4395)" class="st2 st3 st4">8</text>
<rect x="856.91" y="1006.99" class="st1" width="78.4" height="34.92"/>
<text transform="matrix(1.0614 0 0 1 884.9253 1022.439)" class="st2 st3 st4">9</text>
<text transform="matrix(1.0614 0 0 1 765.8267 1080.1857)" class="st2 st3 st4">4</text>
<rect x="826.69" y="1064.74" class="st1" width="76.26" height="63.79"/>
<text transform="matrix(1.0614 0 0 1 826.6934 1080.1857)" class="st2 st3 st4">5</text>
<rect x="884.93" y="1063.91" class="st1" width="39.2" height="27.53"/>
<text transform="matrix(1.0614 0 0 1 884.9253 1079.3507)" class="st2 st3 st4">6</text>
<text transform="matrix(1.0614 0 0 1 764.5518 1135.8585)" class="st2 st3 st4">1</text>
<text transform="matrix(1.0614 0 0 1 826.6934 1138.0914)" class="st2 st3 st4">2</text>
<text transform="matrix(1.0614 0 0 1 884.9277 1138.0914)" class="st2 st3 st4">3</text>
<rect x="840.24" y="946.26" class="st1" width="59.15" height="23.5"/>
<text transform="matrix(1.0614 0 0 1 840.2471 967.711)" class="st2 st3 st6">-</text>
<rect x="830.83" y="842.58" class="st7" width="96.86" height="65.27"/>
<line class="st9" x1="942.35" y1="959.99" x2="967.37" y2="959.99"/>
<line class="st10" x1="947.67" y1="1023.56" x2="965.52" y2="1007.05"/>
<line class="st9" x1="964.59" y1="1023.26" x2="947.07" y2="1006.44"/>
<line class="st9" x1="943.21" y1="1077.67" x2="968.23" y2="1077.67"/>
<line class="st9" x1="942.35" y1="1188.14" x2="967.37" y2="1188.14"/>
<line class="st9" x1="942.35" y1="1195.82" x2="967.37" y2="1195.82"/>
<rect x="763.05" y="1182.32" class="st1" width="69.28" height="47.74"/>
<text transform="matrix(1.0614 0 0 1 763.0566 1197.7687)" class="st2 st3 st4">0</text>
<rect x="889.85" y="1174.37" class="st1" width="80.82" height="42.91"/>
<text transform="matrix(1.0614 0 0 1 889.8477 1189.8165)" class="st2 st3 st11">.</text>
<line class="st10" x1="942.68" y1="1128.53" x2="967.69" y2="1128.53"/>
<line class="st9" x1="954.86" y1="1116.75" x2="954.86" y2="1140.32"/>
<line class="st12" x1="753.03" y1="927.05" x2="976.61" y2="927.05"/>
</svg>
