<?xml version="1.0" encoding="utf-8"?>
<!-- Generator: Adobe Illustrator 23.0.3, SVG Export Plug-In . SVG Version: 6.00 Build 0)  -->
<svg version="1.1" id="Layer_1" xmlns="http://www.w3.org/2000/svg" xmlns:xlink="http://www.w3.org/1999/xlink" x="0px" y="0px"
	 viewBox="0 0 595.28 841.89" style="enable-background:new 0 0 595.28 841.89;" xml:space="preserve">
<style type="text/css">
	.st0{opacity:0.07;stroke:#EEFF15;stroke-width:1.2;stroke-miterlimit:10;enable-background:new    ;}
	.st1{opacity:0.19;fill:none;}
	.st2{opacity:0.19;enable-background:new    ;}
	.st3{font-family:'ArialMT';}
	.st4{font-size:36px;}
	.st5{opacity:0.19;}
	.st6{font-size:50px;}
	.st7{fill:none;}
	.st8{stroke:#000000;stroke-miterlimit:10;}
	.st9{opacity:0.19;fill:none;stroke:#000000;stroke-width:2;stroke-miterlimit:10;enable-background:new    ;}
	.st10{opacity:0.19;fill:none;stroke:#000000;stroke-width:2;stroke-miterlimit:10;}
	.st11{font-size:48px;}
	.st12{fill:#FFFFFF;stroke:#FFFFFF;stroke-miterlimit:10;}
</style>
<path class="st0" d="M441.89,719.73H98.09c-11.51,0-20.84-8.28-20.84-18.47v-572.9c0-10.2,9.33-18.47,20.84-18.47h343.79
	c11.51,0,20.84,8.28,20.84,18.47v572.9C462.72,711.46,453.4,719.73,441.89,719.73z"/>
<rect x="97.45" y="269.07" class="st1" width="47.78" height="41.11"/>
<g class="st2">
	<path d="M97.4,294.63l9.9-25.77h3.67l10.55,25.77h-3.88l-3.01-7.8h-10.78l-2.83,7.8H97.4z M104.83,284.04h8.74l-2.69-7.14
		c-0.82-2.17-1.43-3.95-1.83-5.34c-0.33,1.65-0.79,3.29-1.39,4.92L104.83,284.04z"/>
	<path d="M142.55,285.59l3.41,0.86c-0.71,2.8-2,4.94-3.86,6.41s-4.13,2.21-6.81,2.21c-2.78,0-5.04-0.57-6.78-1.7
		s-3.06-2.77-3.97-4.91s-1.36-4.45-1.36-6.91c0-2.68,0.51-5.02,1.54-7.02s2.48-3.52,4.38-4.55s3.98-1.56,6.25-1.56
		c2.58,0,4.75,0.66,6.5,1.97s2.98,3.16,3.67,5.54l-3.36,0.79c-0.6-1.88-1.46-3.24-2.6-4.1s-2.57-1.28-4.29-1.28
		c-1.98,0-3.64,0.47-4.97,1.42s-2.26,2.22-2.8,3.82s-0.81,3.25-0.81,4.95c0,2.19,0.32,4.1,0.96,5.74c0.64,1.64,1.63,2.86,2.98,3.67
		s2.81,1.21,4.38,1.21c1.91,0,3.53-0.55,4.85-1.65S142.08,287.76,142.55,285.59z"/>
</g>
<rect x="189.78" y="261.29" class="st1" width="54.44" height="28.89"/>
<text transform="matrix(1 0 0 1 189.7776 291.9701)" class="st2 st3 st4">+</text>
<g class="st5">
	<g>
		<path d="M198.84,305.57c12.92-12.15,25.84-24.31,38.77-36.46c0.59-0.55-0.3-1.43-0.88-0.88c-12.92,12.15-25.84,24.31-38.77,36.46
			C197.37,305.24,198.26,306.12,198.84,305.57L198.84,305.57z"/>
	</g>
</g>
<rect x="297.65" y="272.95" class="st1" width="42.22" height="33.33"/>
<text transform="matrix(1 0 0 1 297.6479 298.5143)" class="st2 st3 st4">%</text>
<g>
	<g>
		<path d="M682.57,361.57c3.22,0,3.22-5,0-5C679.35,356.57,679.34,361.57,682.57,361.57L682.57,361.57z"/>
	</g>
</g>
<g>
	<g>
		<path d="M682.57,361.57c3.22,0,3.22-5,0-5C679.35,356.57,679.34,361.57,682.57,361.57L682.57,361.57z"/>
	</g>
</g>
<rect x="115.65" y="367.95" class="st1" width="107.78" height="87.78"/>
<text transform="matrix(1 0 0 1 115.6538 393.5139)" class="st2 st3 st4">7</text>
<rect x="210.54" y="367.95" class="st1" width="68.89" height="48.89"/>
<text transform="matrix(1 0 0 1 210.5439 393.5146)" class="st2 st3 st4">8</text>
<rect x="257.65" y="367.95" class="st1" width="122.22" height="57.78"/>
<text transform="matrix(1 0 0 1 301.3259 393.5143)" class="st2 st3 st4">9</text>
<text transform="matrix(1 0 0 1 115.6534 489.0701)" class="st2 st3 st4">4</text>
<rect x="210.54" y="463.51" class="st1" width="118.89" height="105.56"/>
<text transform="matrix(1 0 0 1 210.5436 489.0698)" class="st2 st3 st4">5</text>
<rect x="301.33" y="462.13" class="st1" width="61.11" height="45.56"/>
<text transform="matrix(1 0 0 1 301.3262 487.688)" class="st2 st3 st4">6</text>
<text transform="matrix(1 0 0 1 113.6665 581.1934)" class="st2 st3 st4">1</text>
<text transform="matrix(1 0 0 1 210.5438 584.8889)" class="st2 st3 st4">2</text>
<text transform="matrix(1 0 0 1 301.3299 584.8888)" class="st2 st3 st4">3</text>
<rect x="231.67" y="267.45" class="st1" width="92.22" height="38.89"/>
<text transform="matrix(1 0 0 1 231.6738 302.9534)" class="st2 st3 st6">-</text>
<rect x="217" y="95.89" class="st7" width="151" height="108"/>
<path class="st8" d="M34,109.89"/>
<path class="st8" d="M34,54.89"/>
<line class="st9" x1="390.85" y1="290.18" x2="429.85" y2="290.18"/>
<line class="st10" x1="399.14" y1="395.37" x2="426.98" y2="368.05"/>
<line class="st9" x1="425.53" y1="394.88" x2="398.21" y2="367.04"/>
<line class="st9" x1="392.19" y1="484.91" x2="431.19" y2="484.91"/>
<line class="st9" x1="390.85" y1="667.7" x2="429.85" y2="667.7"/>
<line class="st9" x1="390.85" y1="680.42" x2="429.85" y2="680.42"/>
<rect x="111.33" y="658.08" class="st1" width="108" height="79"/>
<text transform="matrix(1 0 0 1 111.335 683.6396)" class="st2 st3 st4">0</text>
<rect x="309" y="644.92" class="st1" width="126" height="71"/>
<text transform="matrix(1 0 0 1 309 670.4796)" class="st2 st3 st11">.</text>
<line class="st10" x1="391.36" y1="569.07" x2="430.36" y2="569.07"/>
<line class="st9" x1="410.35" y1="549.57" x2="410.35" y2="588.57"/>
<line class="st12" x1="91.55" y1="233.89" x2="440.1" y2="233.89"/>
</svg>
